<mxfile host="app.diagrams.net" agent="Mozilla/5.0 (Windows NT 10.0; Win64; x64; rv:135.0) Gecko/20100101 Firefox/135.0" version="26.0.16">
  <diagram name="Page-1" id="oYKtDwnqoINvOHrlCiZ5">
    <mxGraphModel dx="2261" dy="761" grid="0" gridSize="10" guides="1" tooltips="1" connect="1" arrows="1" fold="1" page="0" pageScale="1" pageWidth="850" pageHeight="1100" math="0" shadow="0">
      <root>
        <mxCell id="0" />
        <mxCell id="1" parent="0" />
        <mxCell id="Q_42VmQaYdaHDiqQAWkB-1" value="User" style="swimlane;fontStyle=0;childLayout=stackLayout;horizontal=1;startSize=30;horizontalStack=0;resizeParent=1;resizeParentMax=0;resizeLast=0;collapsible=1;marginBottom=0;whiteSpace=wrap;html=1;" parent="1" vertex="1">
          <mxGeometry x="-137" y="25" width="140" height="310" as="geometry" />
        </mxCell>
        <mxCell id="Q_42VmQaYdaHDiqQAWkB-2" value="UserID String" style="text;strokeColor=none;fillColor=none;align=left;verticalAlign=middle;spacingLeft=4;spacingRight=4;overflow=hidden;points=[[0,0.5],[1,0.5]];portConstraint=eastwest;rotatable=0;whiteSpace=wrap;html=1;" parent="Q_42VmQaYdaHDiqQAWkB-1" vertex="1">
          <mxGeometry y="30" width="140" height="30" as="geometry" />
        </mxCell>
        <mxCell id="Q_42VmQaYdaHDiqQAWkB-3" value="FirstName String" style="text;strokeColor=none;fillColor=none;align=left;verticalAlign=middle;spacingLeft=4;spacingRight=4;overflow=hidden;points=[[0,0.5],[1,0.5]];portConstraint=eastwest;rotatable=0;whiteSpace=wrap;html=1;" parent="Q_42VmQaYdaHDiqQAWkB-1" vertex="1">
          <mxGeometry y="60" width="140" height="30" as="geometry" />
        </mxCell>
        <mxCell id="Q_42VmQaYdaHDiqQAWkB-4" value="LastName String" style="text;strokeColor=none;fillColor=none;align=left;verticalAlign=middle;spacingLeft=4;spacingRight=4;overflow=hidden;points=[[0,0.5],[1,0.5]];portConstraint=eastwest;rotatable=0;whiteSpace=wrap;html=1;" parent="Q_42VmQaYdaHDiqQAWkB-1" vertex="1">
          <mxGeometry y="90" width="140" height="30" as="geometry" />
        </mxCell>
        <mxCell id="Q_42VmQaYdaHDiqQAWkB-38" value="Email String" style="text;strokeColor=none;fillColor=none;align=left;verticalAlign=middle;spacingLeft=4;spacingRight=4;overflow=hidden;points=[[0,0.5],[1,0.5]];portConstraint=eastwest;rotatable=0;whiteSpace=wrap;html=1;" parent="Q_42VmQaYdaHDiqQAWkB-1" vertex="1">
          <mxGeometry y="120" width="140" height="30" as="geometry" />
        </mxCell>
        <mxCell id="Q_42VmQaYdaHDiqQAWkB-5" value="Password String" style="text;strokeColor=none;fillColor=none;align=left;verticalAlign=middle;spacingLeft=4;spacingRight=4;overflow=hidden;points=[[0,0.5],[1,0.5]];portConstraint=eastwest;rotatable=0;whiteSpace=wrap;html=1;" parent="Q_42VmQaYdaHDiqQAWkB-1" vertex="1">
          <mxGeometry y="150" width="140" height="30" as="geometry" />
        </mxCell>
        <mxCell id="Q_42VmQaYdaHDiqQAWkB-6" value="UserType String" style="text;strokeColor=none;fillColor=none;align=left;verticalAlign=middle;spacingLeft=4;spacingRight=4;overflow=hidden;points=[[0,0.5],[1,0.5]];portConstraint=eastwest;rotatable=0;whiteSpace=wrap;html=1;" parent="Q_42VmQaYdaHDiqQAWkB-1" vertex="1">
          <mxGeometry y="180" width="140" height="30" as="geometry" />
        </mxCell>
        <mxCell id="Q_42VmQaYdaHDiqQAWkB-12" value="" style="line;strokeWidth=2;html=1;" parent="Q_42VmQaYdaHDiqQAWkB-1" vertex="1">
          <mxGeometry y="210" width="140" height="10" as="geometry" />
        </mxCell>
        <mxCell id="Q_42VmQaYdaHDiqQAWkB-13" value="getFullName() String" style="text;strokeColor=none;fillColor=none;align=left;verticalAlign=middle;spacingLeft=4;spacingRight=4;overflow=hidden;points=[[0,0.5],[1,0.5]];portConstraint=eastwest;rotatable=0;whiteSpace=wrap;html=1;" parent="Q_42VmQaYdaHDiqQAWkB-1" vertex="1">
          <mxGeometry y="220" width="140" height="30" as="geometry" />
        </mxCell>
        <mxCell id="Q_42VmQaYdaHDiqQAWkB-39" value="setEmail () void" style="text;strokeColor=none;fillColor=none;align=left;verticalAlign=middle;spacingLeft=4;spacingRight=4;overflow=hidden;points=[[0,0.5],[1,0.5]];portConstraint=eastwest;rotatable=0;whiteSpace=wrap;html=1;" parent="Q_42VmQaYdaHDiqQAWkB-1" vertex="1">
          <mxGeometry y="250" width="140" height="30" as="geometry" />
        </mxCell>
        <mxCell id="Q_42VmQaYdaHDiqQAWkB-14" value="setPassword()void" style="text;strokeColor=none;fillColor=none;align=left;verticalAlign=middle;spacingLeft=4;spacingRight=4;overflow=hidden;points=[[0,0.5],[1,0.5]];portConstraint=eastwest;rotatable=0;whiteSpace=wrap;html=1;" parent="Q_42VmQaYdaHDiqQAWkB-1" vertex="1">
          <mxGeometry y="280" width="140" height="30" as="geometry" />
        </mxCell>
        <mxCell id="Q_42VmQaYdaHDiqQAWkB-16" value="Login" style="swimlane;fontStyle=0;childLayout=stackLayout;horizontal=1;startSize=30;horizontalStack=0;resizeParent=1;resizeParentMax=0;resizeLast=0;collapsible=1;marginBottom=0;whiteSpace=wrap;html=1;" parent="1" vertex="1">
          <mxGeometry x="32" y="395" width="140" height="130" as="geometry" />
        </mxCell>
        <mxCell id="Q_42VmQaYdaHDiqQAWkB-17" value="LoginID int" style="text;strokeColor=none;fillColor=none;align=left;verticalAlign=middle;spacingLeft=4;spacingRight=4;overflow=hidden;points=[[0,0.5],[1,0.5]];portConstraint=eastwest;rotatable=0;whiteSpace=wrap;html=1;" parent="Q_42VmQaYdaHDiqQAWkB-16" vertex="1">
          <mxGeometry y="30" width="140" height="30" as="geometry" />
        </mxCell>
        <mxCell id="Q_42VmQaYdaHDiqQAWkB-19" value="LoginTime&amp;nbsp; date" style="text;strokeColor=none;fillColor=none;align=left;verticalAlign=middle;spacingLeft=4;spacingRight=4;overflow=hidden;points=[[0,0.5],[1,0.5]];portConstraint=eastwest;rotatable=0;whiteSpace=wrap;html=1;" parent="Q_42VmQaYdaHDiqQAWkB-16" vertex="1">
          <mxGeometry y="60" width="140" height="30" as="geometry" />
        </mxCell>
        <mxCell id="Q_42VmQaYdaHDiqQAWkB-21" value="" style="line;strokeWidth=2;html=1;" parent="Q_42VmQaYdaHDiqQAWkB-16" vertex="1">
          <mxGeometry y="90" width="140" height="10" as="geometry" />
        </mxCell>
        <mxCell id="Q_42VmQaYdaHDiqQAWkB-23" value="verifyLogin() boolean" style="text;strokeColor=none;fillColor=none;align=left;verticalAlign=middle;spacingLeft=4;spacingRight=4;overflow=hidden;points=[[0,0.5],[1,0.5]];portConstraint=eastwest;rotatable=0;whiteSpace=wrap;html=1;" parent="Q_42VmQaYdaHDiqQAWkB-16" vertex="1">
          <mxGeometry y="100" width="140" height="30" as="geometry" />
        </mxCell>
        <mxCell id="Q_42VmQaYdaHDiqQAWkB-24" value="ParkingLot" style="swimlane;fontStyle=0;childLayout=stackLayout;horizontal=1;startSize=30;horizontalStack=0;resizeParent=1;resizeParentMax=0;resizeLast=0;collapsible=1;marginBottom=0;whiteSpace=wrap;html=1;" parent="1" vertex="1">
          <mxGeometry x="310" y="94" width="140" height="280" as="geometry" />
        </mxCell>
        <mxCell id="Q_42VmQaYdaHDiqQAWkB-25" value="ParkingLotID Int" style="text;strokeColor=none;fillColor=none;align=left;verticalAlign=middle;spacingLeft=4;spacingRight=4;overflow=hidden;points=[[0,0.5],[1,0.5]];portConstraint=eastwest;rotatable=0;whiteSpace=wrap;html=1;" parent="Q_42VmQaYdaHDiqQAWkB-24" vertex="1">
          <mxGeometry y="30" width="140" height="30" as="geometry" />
        </mxCell>
        <mxCell id="Q_42VmQaYdaHDiqQAWkB-26" value="Location String" style="text;strokeColor=none;fillColor=none;align=left;verticalAlign=middle;spacingLeft=4;spacingRight=4;overflow=hidden;points=[[0,0.5],[1,0.5]];portConstraint=eastwest;rotatable=0;whiteSpace=wrap;html=1;" parent="Q_42VmQaYdaHDiqQAWkB-24" vertex="1">
          <mxGeometry y="60" width="140" height="30" as="geometry" />
        </mxCell>
        <mxCell id="Q_42VmQaYdaHDiqQAWkB-27" value="TotalSpaces Int" style="text;strokeColor=none;fillColor=none;align=left;verticalAlign=middle;spacingLeft=4;spacingRight=4;overflow=hidden;points=[[0,0.5],[1,0.5]];portConstraint=eastwest;rotatable=0;whiteSpace=wrap;html=1;" parent="Q_42VmQaYdaHDiqQAWkB-24" vertex="1">
          <mxGeometry y="90" width="140" height="30" as="geometry" />
        </mxCell>
        <mxCell id="Q_42VmQaYdaHDiqQAWkB-28" value="AvailableSpaces Int" style="text;strokeColor=none;fillColor=none;align=left;verticalAlign=middle;spacingLeft=4;spacingRight=4;overflow=hidden;points=[[0,0.5],[1,0.5]];portConstraint=eastwest;rotatable=0;whiteSpace=wrap;html=1;" parent="Q_42VmQaYdaHDiqQAWkB-24" vertex="1">
          <mxGeometry y="120" width="140" height="30" as="geometry" />
        </mxCell>
        <mxCell id="Q_42VmQaYdaHDiqQAWkB-29" value="OpenHours String" style="text;strokeColor=none;fillColor=none;align=left;verticalAlign=middle;spacingLeft=4;spacingRight=4;overflow=hidden;points=[[0,0.5],[1,0.5]];portConstraint=eastwest;rotatable=0;whiteSpace=wrap;html=1;" parent="Q_42VmQaYdaHDiqQAWkB-24" vertex="1">
          <mxGeometry y="150" width="140" height="30" as="geometry" />
        </mxCell>
        <mxCell id="Q_42VmQaYdaHDiqQAWkB-30" value="LotType String" style="text;strokeColor=none;fillColor=none;align=left;verticalAlign=middle;spacingLeft=4;spacingRight=4;overflow=hidden;points=[[0,0.5],[1,0.5]];portConstraint=eastwest;rotatable=0;whiteSpace=wrap;html=1;" parent="Q_42VmQaYdaHDiqQAWkB-24" vertex="1">
          <mxGeometry y="180" width="140" height="30" as="geometry" />
        </mxCell>
        <mxCell id="Q_42VmQaYdaHDiqQAWkB-32" value="" style="line;strokeWidth=2;html=1;" parent="Q_42VmQaYdaHDiqQAWkB-24" vertex="1">
          <mxGeometry y="210" width="140" height="10" as="geometry" />
        </mxCell>
        <mxCell id="Q_42VmQaYdaHDiqQAWkB-31" value="CheckAvailability() int" style="text;strokeColor=none;fillColor=none;align=left;verticalAlign=middle;spacingLeft=4;spacingRight=4;overflow=hidden;points=[[0,0.5],[1,0.5]];portConstraint=eastwest;rotatable=0;whiteSpace=wrap;html=1;" parent="Q_42VmQaYdaHDiqQAWkB-24" vertex="1">
          <mxGeometry y="220" width="140" height="30" as="geometry" />
        </mxCell>
        <mxCell id="Q_42VmQaYdaHDiqQAWkB-33" value="updateParkingStatus() void" style="text;strokeColor=none;fillColor=none;align=left;verticalAlign=middle;spacingLeft=4;spacingRight=4;overflow=hidden;points=[[0,0.5],[1,0.5]];portConstraint=eastwest;rotatable=0;whiteSpace=wrap;html=1;" parent="Q_42VmQaYdaHDiqQAWkB-24" vertex="1">
          <mxGeometry y="250" width="140" height="30" as="geometry" />
        </mxCell>
        <mxCell id="Q_42VmQaYdaHDiqQAWkB-34" value="ParkingRecord" style="swimlane;fontStyle=0;childLayout=stackLayout;horizontal=1;startSize=30;horizontalStack=0;resizeParent=1;resizeParentMax=0;resizeLast=0;collapsible=1;marginBottom=0;whiteSpace=wrap;html=1;" parent="1" vertex="1">
          <mxGeometry x="520" y="121" width="140" height="160" as="geometry" />
        </mxCell>
        <mxCell id="Q_42VmQaYdaHDiqQAWkB-35" value="RecordID int" style="text;strokeColor=none;fillColor=none;align=left;verticalAlign=middle;spacingLeft=4;spacingRight=4;overflow=hidden;points=[[0,0.5],[1,0.5]];portConstraint=eastwest;rotatable=0;whiteSpace=wrap;html=1;" parent="Q_42VmQaYdaHDiqQAWkB-34" vertex="1">
          <mxGeometry y="30" width="140" height="30" as="geometry" />
        </mxCell>
        <mxCell id="Q_42VmQaYdaHDiqQAWkB-36" value="entryTime Date" style="text;strokeColor=none;fillColor=none;align=left;verticalAlign=middle;spacingLeft=4;spacingRight=4;overflow=hidden;points=[[0,0.5],[1,0.5]];portConstraint=eastwest;rotatable=0;whiteSpace=wrap;html=1;" parent="Q_42VmQaYdaHDiqQAWkB-34" vertex="1">
          <mxGeometry y="60" width="140" height="30" as="geometry" />
        </mxCell>
        <mxCell id="Q_42VmQaYdaHDiqQAWkB-37" value="exitTime Date" style="text;strokeColor=none;fillColor=none;align=left;verticalAlign=middle;spacingLeft=4;spacingRight=4;overflow=hidden;points=[[0,0.5],[1,0.5]];portConstraint=eastwest;rotatable=0;whiteSpace=wrap;html=1;" parent="Q_42VmQaYdaHDiqQAWkB-34" vertex="1">
          <mxGeometry y="90" width="140" height="30" as="geometry" />
        </mxCell>
        <mxCell id="Q_42VmQaYdaHDiqQAWkB-76" value="" style="line;strokeWidth=2;html=1;" parent="Q_42VmQaYdaHDiqQAWkB-34" vertex="1">
          <mxGeometry y="120" width="140" height="10" as="geometry" />
        </mxCell>
        <mxCell id="Q_42VmQaYdaHDiqQAWkB-75" value="getDuration() int" style="text;strokeColor=none;fillColor=none;align=left;verticalAlign=middle;spacingLeft=4;spacingRight=4;overflow=hidden;points=[[0,0.5],[1,0.5]];portConstraint=eastwest;rotatable=0;whiteSpace=wrap;html=1;" parent="Q_42VmQaYdaHDiqQAWkB-34" vertex="1">
          <mxGeometry y="130" width="140" height="30" as="geometry" />
        </mxCell>
        <mxCell id="Q_42VmQaYdaHDiqQAWkB-40" value="Admin" style="swimlane;fontStyle=0;childLayout=stackLayout;horizontal=1;startSize=30;horizontalStack=0;resizeParent=1;resizeParentMax=0;resizeLast=0;collapsible=1;marginBottom=0;whiteSpace=wrap;html=1;" parent="1" vertex="1">
          <mxGeometry x="-458" y="2" width="140" height="160" as="geometry" />
        </mxCell>
        <mxCell id="Q_42VmQaYdaHDiqQAWkB-41" value="adminID String" style="text;strokeColor=none;fillColor=none;align=left;verticalAlign=middle;spacingLeft=4;spacingRight=4;overflow=hidden;points=[[0,0.5],[1,0.5]];portConstraint=eastwest;rotatable=0;whiteSpace=wrap;html=1;" parent="Q_42VmQaYdaHDiqQAWkB-40" vertex="1">
          <mxGeometry y="30" width="140" height="30" as="geometry" />
        </mxCell>
        <mxCell id="Q_42VmQaYdaHDiqQAWkB-42" value="Permissions String" style="text;strokeColor=none;fillColor=none;align=left;verticalAlign=middle;spacingLeft=4;spacingRight=4;overflow=hidden;points=[[0,0.5],[1,0.5]];portConstraint=eastwest;rotatable=0;whiteSpace=wrap;html=1;" parent="Q_42VmQaYdaHDiqQAWkB-40" vertex="1">
          <mxGeometry y="60" width="140" height="30" as="geometry" />
        </mxCell>
        <mxCell id="Q_42VmQaYdaHDiqQAWkB-47" value="" style="line;strokeWidth=2;html=1;" parent="Q_42VmQaYdaHDiqQAWkB-40" vertex="1">
          <mxGeometry y="90" width="140" height="10" as="geometry" />
        </mxCell>
        <mxCell id="Q_42VmQaYdaHDiqQAWkB-43" value="setPermissions() void" style="text;strokeColor=none;fillColor=none;align=left;verticalAlign=middle;spacingLeft=4;spacingRight=4;overflow=hidden;points=[[0,0.5],[1,0.5]];portConstraint=eastwest;rotatable=0;whiteSpace=wrap;html=1;" parent="Q_42VmQaYdaHDiqQAWkB-40" vertex="1">
          <mxGeometry y="100" width="140" height="30" as="geometry" />
        </mxCell>
        <mxCell id="Q_42VmQaYdaHDiqQAWkB-46" value="getPermissions() String" style="text;strokeColor=none;fillColor=none;align=left;verticalAlign=middle;spacingLeft=4;spacingRight=4;overflow=hidden;points=[[0,0.5],[1,0.5]];portConstraint=eastwest;rotatable=0;whiteSpace=wrap;html=1;" parent="Q_42VmQaYdaHDiqQAWkB-40" vertex="1">
          <mxGeometry y="130" width="140" height="30" as="geometry" />
        </mxCell>
        <mxCell id="Q_42VmQaYdaHDiqQAWkB-48" value="Settings" style="swimlane;fontStyle=0;childLayout=stackLayout;horizontal=1;startSize=30;horizontalStack=0;resizeParent=1;resizeParentMax=0;resizeLast=0;collapsible=1;marginBottom=0;whiteSpace=wrap;html=1;" parent="1" vertex="1">
          <mxGeometry x="97" y="70" width="140" height="190" as="geometry" />
        </mxCell>
        <mxCell id="Q_42VmQaYdaHDiqQAWkB-49" value="settingID String" style="text;strokeColor=none;fillColor=none;align=left;verticalAlign=middle;spacingLeft=4;spacingRight=4;overflow=hidden;points=[[0,0.5],[1,0.5]];portConstraint=eastwest;rotatable=0;whiteSpace=wrap;html=1;" parent="Q_42VmQaYdaHDiqQAWkB-48" vertex="1">
          <mxGeometry y="30" width="140" height="30" as="geometry" />
        </mxCell>
        <mxCell id="Q_42VmQaYdaHDiqQAWkB-50" value="mapView Boolean" style="text;strokeColor=none;fillColor=none;align=left;verticalAlign=middle;spacingLeft=4;spacingRight=4;overflow=hidden;points=[[0,0.5],[1,0.5]];portConstraint=eastwest;rotatable=0;whiteSpace=wrap;html=1;" parent="Q_42VmQaYdaHDiqQAWkB-48" vertex="1">
          <mxGeometry y="60" width="140" height="30" as="geometry" />
        </mxCell>
        <mxCell id="Q_42VmQaYdaHDiqQAWkB-51" value="notificationsEnabled Boolean" style="text;strokeColor=none;fillColor=none;align=left;verticalAlign=middle;spacingLeft=4;spacingRight=4;overflow=hidden;points=[[0,0.5],[1,0.5]];portConstraint=eastwest;rotatable=0;whiteSpace=wrap;html=1;" parent="Q_42VmQaYdaHDiqQAWkB-48" vertex="1">
          <mxGeometry y="90" width="140" height="30" as="geometry" />
        </mxCell>
        <mxCell id="Q_42VmQaYdaHDiqQAWkB-54" value="gpsAllowed Boolean" style="text;strokeColor=none;fillColor=none;align=left;verticalAlign=middle;spacingLeft=4;spacingRight=4;overflow=hidden;points=[[0,0.5],[1,0.5]];portConstraint=eastwest;rotatable=0;whiteSpace=wrap;html=1;" parent="Q_42VmQaYdaHDiqQAWkB-48" vertex="1">
          <mxGeometry y="120" width="140" height="30" as="geometry" />
        </mxCell>
        <mxCell id="Q_42VmQaYdaHDiqQAWkB-56" value="" style="line;strokeWidth=2;html=1;" parent="Q_42VmQaYdaHDiqQAWkB-48" vertex="1">
          <mxGeometry y="150" width="140" height="10" as="geometry" />
        </mxCell>
        <mxCell id="Q_42VmQaYdaHDiqQAWkB-55" value="toggleNotifications() void" style="text;strokeColor=none;fillColor=none;align=left;verticalAlign=middle;spacingLeft=4;spacingRight=4;overflow=hidden;points=[[0,0.5],[1,0.5]];portConstraint=eastwest;rotatable=0;whiteSpace=wrap;html=1;" parent="Q_42VmQaYdaHDiqQAWkB-48" vertex="1">
          <mxGeometry y="160" width="140" height="30" as="geometry" />
        </mxCell>
        <mxCell id="Q_42VmQaYdaHDiqQAWkB-58" value="Notification" style="swimlane;fontStyle=0;childLayout=stackLayout;horizontal=1;startSize=30;horizontalStack=0;resizeParent=1;resizeParentMax=0;resizeLast=0;collapsible=1;marginBottom=0;whiteSpace=wrap;html=1;" parent="1" vertex="1">
          <mxGeometry x="-137" y="422" width="140" height="160" as="geometry" />
        </mxCell>
        <mxCell id="Q_42VmQaYdaHDiqQAWkB-59" value="notificationID String" style="text;strokeColor=none;fillColor=none;align=left;verticalAlign=middle;spacingLeft=4;spacingRight=4;overflow=hidden;points=[[0,0.5],[1,0.5]];portConstraint=eastwest;rotatable=0;whiteSpace=wrap;html=1;" parent="Q_42VmQaYdaHDiqQAWkB-58" vertex="1">
          <mxGeometry y="30" width="140" height="30" as="geometry" />
        </mxCell>
        <mxCell id="Q_42VmQaYdaHDiqQAWkB-60" value="message String" style="text;strokeColor=none;fillColor=none;align=left;verticalAlign=middle;spacingLeft=4;spacingRight=4;overflow=hidden;points=[[0,0.5],[1,0.5]];portConstraint=eastwest;rotatable=0;whiteSpace=wrap;html=1;" parent="Q_42VmQaYdaHDiqQAWkB-58" vertex="1">
          <mxGeometry y="60" width="140" height="30" as="geometry" />
        </mxCell>
        <mxCell id="Q_42VmQaYdaHDiqQAWkB-61" value="sentTime Date" style="text;strokeColor=none;fillColor=none;align=left;verticalAlign=middle;spacingLeft=4;spacingRight=4;overflow=hidden;points=[[0,0.5],[1,0.5]];portConstraint=eastwest;rotatable=0;whiteSpace=wrap;html=1;" parent="Q_42VmQaYdaHDiqQAWkB-58" vertex="1">
          <mxGeometry y="90" width="140" height="30" as="geometry" />
        </mxCell>
        <mxCell id="Q_42VmQaYdaHDiqQAWkB-66" value="" style="line;strokeWidth=2;html=1;" parent="Q_42VmQaYdaHDiqQAWkB-58" vertex="1">
          <mxGeometry y="120" width="140" height="10" as="geometry" />
        </mxCell>
        <mxCell id="Q_42VmQaYdaHDiqQAWkB-64" value="getMessage() String" style="text;strokeColor=none;fillColor=none;align=left;verticalAlign=middle;spacingLeft=4;spacingRight=4;overflow=hidden;points=[[0,0.5],[1,0.5]];portConstraint=eastwest;rotatable=0;whiteSpace=wrap;html=1;" parent="Q_42VmQaYdaHDiqQAWkB-58" vertex="1">
          <mxGeometry y="130" width="140" height="30" as="geometry" />
        </mxCell>
        <mxCell id="Q_42VmQaYdaHDiqQAWkB-67" value="Report" style="swimlane;fontStyle=0;childLayout=stackLayout;horizontal=1;startSize=30;horizontalStack=0;resizeParent=1;resizeParentMax=0;resizeLast=0;collapsible=1;marginBottom=0;whiteSpace=wrap;html=1;" parent="1" vertex="1">
          <mxGeometry x="-290" y="418" width="140" height="190" as="geometry" />
        </mxCell>
        <mxCell id="Q_42VmQaYdaHDiqQAWkB-68" value="reportID String" style="text;strokeColor=none;fillColor=none;align=left;verticalAlign=middle;spacingLeft=4;spacingRight=4;overflow=hidden;points=[[0,0.5],[1,0.5]];portConstraint=eastwest;rotatable=0;whiteSpace=wrap;html=1;" parent="Q_42VmQaYdaHDiqQAWkB-67" vertex="1">
          <mxGeometry y="30" width="140" height="30" as="geometry" />
        </mxCell>
        <mxCell id="Q_42VmQaYdaHDiqQAWkB-69" value="Image String" style="text;strokeColor=none;fillColor=none;align=left;verticalAlign=middle;spacingLeft=4;spacingRight=4;overflow=hidden;points=[[0,0.5],[1,0.5]];portConstraint=eastwest;rotatable=0;whiteSpace=wrap;html=1;" parent="Q_42VmQaYdaHDiqQAWkB-67" vertex="1">
          <mxGeometry y="60" width="140" height="30" as="geometry" />
        </mxCell>
        <mxCell id="Q_42VmQaYdaHDiqQAWkB-70" value="Description String" style="text;strokeColor=none;fillColor=none;align=left;verticalAlign=middle;spacingLeft=4;spacingRight=4;overflow=hidden;points=[[0,0.5],[1,0.5]];portConstraint=eastwest;rotatable=0;whiteSpace=wrap;html=1;" parent="Q_42VmQaYdaHDiqQAWkB-67" vertex="1">
          <mxGeometry y="90" width="140" height="30" as="geometry" />
        </mxCell>
        <mxCell id="Q_42VmQaYdaHDiqQAWkB-72" value="timeSubmitted Date" style="text;strokeColor=none;fillColor=none;align=left;verticalAlign=middle;spacingLeft=4;spacingRight=4;overflow=hidden;points=[[0,0.5],[1,0.5]];portConstraint=eastwest;rotatable=0;whiteSpace=wrap;html=1;" parent="Q_42VmQaYdaHDiqQAWkB-67" vertex="1">
          <mxGeometry y="120" width="140" height="30" as="geometry" />
        </mxCell>
        <mxCell id="Q_42VmQaYdaHDiqQAWkB-74" value="" style="line;strokeWidth=2;html=1;" parent="Q_42VmQaYdaHDiqQAWkB-67" vertex="1">
          <mxGeometry y="150" width="140" height="10" as="geometry" />
        </mxCell>
        <mxCell id="Q_42VmQaYdaHDiqQAWkB-73" value="getDescription() String" style="text;strokeColor=none;fillColor=none;align=left;verticalAlign=middle;spacingLeft=4;spacingRight=4;overflow=hidden;points=[[0,0.5],[1,0.5]];portConstraint=eastwest;rotatable=0;whiteSpace=wrap;html=1;" parent="Q_42VmQaYdaHDiqQAWkB-67" vertex="1">
          <mxGeometry y="160" width="140" height="30" as="geometry" />
        </mxCell>
        <mxCell id="Q_42VmQaYdaHDiqQAWkB-78" value="" style="endArrow=classic;html=1;rounded=0;fontSize=12;startSize=8;endSize=8;curved=1;entryX=0.25;entryY=0;entryDx=0;entryDy=0;exitX=1;exitY=0.5;exitDx=0;exitDy=0;" parent="1" source="Q_42VmQaYdaHDiqQAWkB-41" target="Q_42VmQaYdaHDiqQAWkB-88" edge="1">
          <mxGeometry width="50" height="50" relative="1" as="geometry">
            <mxPoint x="-213" y="95" as="sourcePoint" />
            <mxPoint x="-307.1199999999999" y="64.24000000000001" as="targetPoint" />
          </mxGeometry>
        </mxCell>
        <mxCell id="Q_42VmQaYdaHDiqQAWkB-79" value="" style="endArrow=classic;html=1;rounded=0;fontSize=12;startSize=8;endSize=8;curved=1;exitX=0.998;exitY=0.944;exitDx=0;exitDy=0;exitPerimeter=0;" parent="1" source="Q_42VmQaYdaHDiqQAWkB-14" target="Q_42VmQaYdaHDiqQAWkB-16" edge="1">
          <mxGeometry width="50" height="50" relative="1" as="geometry">
            <mxPoint x="-195" y="426" as="sourcePoint" />
            <mxPoint x="-123" y="330" as="targetPoint" />
          </mxGeometry>
        </mxCell>
        <mxCell id="Q_42VmQaYdaHDiqQAWkB-80" value="" style="endArrow=classic;html=1;rounded=0;fontSize=12;startSize=8;endSize=8;curved=1;exitX=0.469;exitY=0.922;exitDx=0;exitDy=0;exitPerimeter=0;entryX=0.5;entryY=0;entryDx=0;entryDy=0;" parent="1" source="Q_42VmQaYdaHDiqQAWkB-14" target="Q_42VmQaYdaHDiqQAWkB-58" edge="1">
          <mxGeometry width="50" height="50" relative="1" as="geometry">
            <mxPoint x="-195" y="426" as="sourcePoint" />
            <mxPoint x="-145" y="376" as="targetPoint" />
          </mxGeometry>
        </mxCell>
        <mxCell id="Q_42VmQaYdaHDiqQAWkB-85" value="" style="endArrow=classic;html=1;rounded=0;fontSize=12;startSize=8;endSize=8;curved=1;exitX=0.069;exitY=0.967;exitDx=0;exitDy=0;exitPerimeter=0;" parent="1" source="Q_42VmQaYdaHDiqQAWkB-14" target="Q_42VmQaYdaHDiqQAWkB-67" edge="1">
          <mxGeometry width="50" height="50" relative="1" as="geometry">
            <mxPoint x="113" y="607" as="sourcePoint" />
            <mxPoint x="163" y="557" as="targetPoint" />
          </mxGeometry>
        </mxCell>
        <mxCell id="Q_42VmQaYdaHDiqQAWkB-86" value="" style="endArrow=classic;html=1;rounded=0;fontSize=12;startSize=8;endSize=8;curved=1;entryX=-0.012;entryY=0.167;entryDx=0;entryDy=0;entryPerimeter=0;exitX=1.007;exitY=0.011;exitDx=0;exitDy=0;exitPerimeter=0;" parent="1" source="Q_42VmQaYdaHDiqQAWkB-5" target="Q_42VmQaYdaHDiqQAWkB-51" edge="1">
          <mxGeometry width="50" height="50" relative="1" as="geometry">
            <mxPoint x="113" y="307" as="sourcePoint" />
            <mxPoint x="163" y="257" as="targetPoint" />
          </mxGeometry>
        </mxCell>
        <mxCell id="Q_42VmQaYdaHDiqQAWkB-87" value="" style="endArrow=classic;html=1;rounded=0;fontSize=12;startSize=8;endSize=8;curved=1;exitX=0.981;exitY=0.056;exitDx=0;exitDy=0;exitPerimeter=0;" parent="1" source="Q_42VmQaYdaHDiqQAWkB-25" edge="1">
          <mxGeometry width="50" height="50" relative="1" as="geometry">
            <mxPoint x="454" y="318" as="sourcePoint" />
            <mxPoint x="513" y="199" as="targetPoint" />
          </mxGeometry>
        </mxCell>
        <mxCell id="Q_42VmQaYdaHDiqQAWkB-89" value="" style="endArrow=classic;html=1;rounded=0;fontSize=12;startSize=8;endSize=8;curved=1;entryX=0.024;entryY=0.066;entryDx=0;entryDy=0;entryPerimeter=0;" parent="1" source="Q_42VmQaYdaHDiqQAWkB-88" target="Q_42VmQaYdaHDiqQAWkB-1" edge="1">
          <mxGeometry width="50" height="50" relative="1" as="geometry">
            <mxPoint x="-213" y="95" as="sourcePoint" />
            <mxPoint x="-219" y="112" as="targetPoint" />
            <Array as="points">
              <mxPoint x="-158" y="73" />
            </Array>
          </mxGeometry>
        </mxCell>
        <mxCell id="Q_42VmQaYdaHDiqQAWkB-88" value="Extends" style="text;html=1;align=center;verticalAlign=middle;whiteSpace=wrap;rounded=0;" parent="1" vertex="1">
          <mxGeometry x="-297" y="87" width="60" height="30" as="geometry" />
        </mxCell>
      </root>
    </mxGraphModel>
  </diagram>
</mxfile>
